# xmcd
#
# Track frame offsets:
#	150
#	11935
#	22555
#	31378
#	48186
#	64682
#	76637
#	87264
#	108724
#	119824
#	134528
#	151432
# Disc length: 2307 seconds
# Revision: 1
# Processed by: cddbd v1.5.1PL2 Copyright (c) Steve Scherf et al.
#
# Submitted via: libkcddb 0.3
#
DISCID=9409010c
DTITLE=Various Artist - Holiday world beat
DYEAR=2005
DGENRE=Folk
TTITLE0=The Wailers featuring Bob Marley - Sound The Trumpet
TTITLE1=Celia Cruz - Jingle Bells
TTITLE2=Arthur Lyman - Mele Kalikimaka
TTITLE3=Johnny Mercer - Winter Wonderland (Rise Ashen's Brazilian Beach Mix)
TTITLE4=Michael Andrew and Swingerhead - Mistletoe Mambo
TTITLE5=Billy May - Rudolph, The Red Nosed Reindeer
TTITLE6=Capitol Studio Orchestra - Cha-Cha All The Way
TTITLE7=Poncho Sanchez - Have Yourself A Merry Little Christmas
TTITLE8=The Dinning Sisters and Bob Atcher - Christmas Island
TTITLE9=Eric Reed featuring Paula West - Santa Baby
TTITLE10=Peteescovedo and Ray Obiedo - Feliz Navidad
TTITLE11=Mel Torme - Christmas Song (John Beltran Remix)
EXTD=
EXTT0=
EXTT1=
EXTT2=
EXTT3=
EXTT4=
EXTT5=
EXTT6=
EXTT7=
EXTT8=
EXTT9=
EXTT10=
EXTT11=
PLAYORDER=
